<?xml version="1.0" encoding="UTF-8"?>
<svg version="1.1" xmlns="http://www.w3.org/2000/svg" width="225" height="225">
<path d="M0 0 C74.25 0 148.5 0 225 0 C225 74.25 225 148.5 225 225 C150.75 225 76.5 225 0 225 C0 150.75 0 76.5 0 0 Z " fill="#FEFEFE" transform="translate(0,0)"/>
<path d="M0 0 C21.24980476 15.81868189 21.24980476 15.81868189 22.6484375 20.85375977 C21.06055593 27.84043866 12.34576613 32.86537168 6.8359375 36.91625977 C6.13791016 37.44026367 5.43988281 37.96426758 4.72070312 38.50415039 C-0.8581019 42.64977049 -4.70408793 45.48147221 -11.9765625 44.60375977 C-14.94895491 42.81899736 -17.40260277 40.75167922 -18.9765625 37.60375977 C-18.73494083 35.56723422 -18.49304891 33.53074047 -18.25 31.49438477 C-17.02362529 18.52985208 -17.79539499 9.07387969 -25.4765625 -1.58374023 C-32.03351367 -9.36628975 -41.51707702 -14.71712523 -51.6796875 -15.64233398 C-59.0931481 -15.95598039 -65.30053105 -14.67443489 -71.9765625 -11.39624023 C-72.6365625 -10.73624023 -73.2965625 -10.07624023 -73.9765625 -9.39624023 C-73.79389952 -6.36502209 -73.32389133 -4.8024243 -71.33984375 -2.48217773 C-65.44343198 2.43711437 -60.57711036 6.24847138 -52.62109375 6.04516602 C-48.08629915 5.28825052 -43.99301433 3.4300845 -39.796875 1.59985352 C-36.9765625 0.60375977 -36.9765625 0.60375977 -33.9765625 1.60375977 C-34.57642716 5.15874717 -35.56048377 8.13582882 -37.0390625 11.41625977 C-39.67775643 17.98389136 -40.07635527 22.61602159 -37.3515625 29.22875977 C-34.27599454 35.04618304 -29.52949649 39.31903667 -24.70263672 43.6940918 C-20.1220527 47.95365798 -20.1220527 47.95365798 -19.359375 51.36157227 C-20.11574638 54.10940248 -20.73092256 54.72644294 -23.1640625 56.16625977 C-37.9476748 64.24864988 -55.59840498 64.9934043 -71.8515625 61.10375977 C-84.90313975 56.98068086 -96.96010569 50.69536214 -107.9765625 42.60375977 C-108.50733398 42.21430176 -109.03810547 41.82484375 -109.58496094 41.42358398 C-115.47330136 37.07380993 -121.20832792 32.52976783 -126.7890625 27.79125977 C-127.59988281 27.10418945 -128.41070312 26.41711914 -129.24609375 25.70922852 C-130.9765625 23.60375977 -130.9765625 23.60375977 -131.52734375 21.13500977 C-129.5490855 12.04343992 -113.46992836 3.65031228 -105.9765625 -1.39624023 C-102.45508384 -3.15697956 -98.70378931 -2.32162068 -94.9765625 -1.39624023 C-91.9140625 0.72875977 -91.9140625 0.72875977 -89.9765625 3.60375977 C-89.64017781 6.79941436 -89.63277723 9.33873739 -90.4765625 12.44360352 C-92.72833357 22.17195824 -90.74065363 31.01551981 -85.9765625 39.60375977 C-84.42146954 41.76828105 -82.78621571 43.63899342 -80.9765625 45.60375977 C-80.9765625 46.26375977 -80.9765625 46.92375977 -80.9765625 47.60375977 C-80.13544922 48.00594727 -80.13544922 48.00594727 -79.27734375 48.41625977 C-76.81307727 49.68813924 -74.51013845 51.12591665 -72.1640625 52.60375977 C-64.28606673 57.3053293 -57.08494957 58.55302095 -47.9765625 57.60375977 C-40.86325655 55.74394734 -40.86325655 55.74394734 -34.9765625 51.60375977 C-35.15922548 48.57254162 -35.62923367 47.00994384 -37.61328125 44.68969727 C-43.60101349 39.6942178 -48.40765449 36.00039716 -56.46875 36.23266602 C-60.37093583 36.81009227 -63.86667336 38.22042921 -67.49609375 39.72875977 C-69.9765625 40.60375977 -69.9765625 40.60375977 -73.9765625 40.60375977 C-73.5651944 36.65462597 -72.97122463 33.38662176 -71.4140625 29.72875977 C-69.40832961 24.54977782 -68.97679982 19.88693104 -70.609375 14.52563477 C-73.66628753 8.02668688 -79.02005311 3.33672066 -84.25048828 -1.43603516 C-88.82400852 -5.7272768 -88.82400852 -5.7272768 -89.60546875 -9.15405273 C-88.59834373 -12.74467238 -86.52058286 -13.5021488 -83.40234375 -15.26342773 C-79.39324146 -17.13563331 -75.27028042 -18.35958403 -70.9765625 -19.39624023 C-70.25597656 -19.58057617 -69.53539062 -19.76491211 -68.79296875 -19.95483398 C-43.34428342 -23.9433242 -20.35506248 -14.73424655 0 0 Z " fill="#020202" transform="translate(166.9765625,91.396240234375)"/>
</svg>

